<svg width="17" height="17" viewBox="0 0 17 17" fill="none" xmlns="http://www.w3.org/2000/svg">
<g clip-path="url(#clip0_456_759)">
<path fill-rule="evenodd" clip-rule="evenodd" d="M1.06247 12.2194C1.06247 12.3603 1.11844 12.4954 1.21807 12.5951C1.3177 12.6947 1.45283 12.7507 1.59372 12.7507H14.1238L10.7801 16.0933C10.6803 16.1931 10.6243 16.3283 10.6243 16.4694C10.6243 16.6105 10.6803 16.7458 10.7801 16.8455C10.8799 16.9453 11.0151 17.0013 11.1562 17.0013C11.2973 17.0013 11.4326 16.9453 11.5323 16.8455L15.7823 12.5955C15.8318 12.5462 15.8711 12.4876 15.8979 12.423C15.9246 12.3585 15.9384 12.2893 15.9384 12.2194C15.9384 12.1495 15.9246 12.0804 15.8979 12.0158C15.8711 11.9513 15.8318 11.8926 15.7823 11.8433L11.5323 7.5933C11.4326 7.49354 11.2973 7.4375 11.1562 7.4375C11.0151 7.4375 10.8799 7.49354 10.7801 7.5933C10.6803 7.69305 10.6243 7.82835 10.6243 7.96942C10.6243 8.1105 10.6803 8.24579 10.7801 8.34555L14.1238 11.6882H1.59372C1.45283 11.6882 1.3177 11.7441 1.21807 11.8438C1.11844 11.9434 1.06247 12.0785 1.06247 12.2194ZM15.9375 4.78192C15.9375 4.92282 15.8815 5.05794 15.7819 5.15757C15.6822 5.2572 15.5471 5.31317 15.4062 5.31317H2.87616L6.21985 8.6558C6.26924 8.70519 6.30842 8.76383 6.33515 8.82836C6.36189 8.8929 6.37564 8.96207 6.37564 9.03192C6.37564 9.10177 6.36189 9.17094 6.33515 9.23548C6.30842 9.30001 6.26924 9.35865 6.21985 9.40805C6.17045 9.45744 6.11182 9.49662 6.04728 9.52335C5.98274 9.55008 5.91358 9.56384 5.84372 9.56384C5.77387 9.56384 5.7047 9.55008 5.64017 9.52335C5.57563 9.49662 5.51699 9.45744 5.4676 9.40805L1.2176 5.15805C1.16812 5.1087 1.12887 5.05007 1.10209 4.98553C1.07531 4.92099 1.06152 4.8518 1.06152 4.78192C1.06152 4.71204 1.07531 4.64285 1.10209 4.57831C1.12887 4.51377 1.16812 4.45514 1.2176 4.4058L5.4676 0.155796C5.56735 0.0560415 5.70265 0 5.84372 0C5.9848 0 6.12009 0.0560415 6.21985 0.155796C6.3196 0.255551 6.37564 0.390847 6.37564 0.531921C6.37564 0.672995 6.3196 0.808292 6.21985 0.908046L2.87616 4.25067H15.4062C15.5471 4.25067 15.6822 4.30664 15.7819 4.40627C15.8815 4.5059 15.9375 4.64103 15.9375 4.78192Z" fill="white"/>
</g>
<defs>
<clipPath id="clip0_456_759">
<rect width="17" height="17" fill="white"/>
</clipPath>
</defs>
</svg>
