<svg width="1076" height="1076" viewBox="0 0 1076 1076" fill="none" xmlns="http://www.w3.org/2000/svg">
<g clip-path="url(#clip0_575_23)">
<path d="M538 1071C832.368 1071 1071 832.368 1071 538C1071 243.632 832.368 5 538 5C243.632 5 5 243.632 5 538C5 832.368 243.632 1071 538 1071Z" fill="url(#paint0_linear_575_23)"/>
<path fill-rule="evenodd" clip-rule="evenodd" d="M538 1076C835.129 1076 1076 835.129 1076 538C1076 240.871 835.129 0 538 0C240.871 0 0 240.871 0 538C0 835.129 240.871 1076 538 1076ZM537.5 999C791.827 999 998 792.827 998 538.5C998 284.173 791.827 78 537.5 78C283.173 78 77 284.173 77 538.5C77 792.827 283.173 999 537.5 999Z" fill="black"/>
<path d="M581 229H108V827H581V229Z" fill="black"/>
<path d="M959 229H108V317H959V229Z" fill="black"/>
<path d="M323.273 771.001H170.474V320.092H326.355C371.123 320.092 409.58 329.119 441.724 347.173C474.016 365.08 498.822 390.84 516.142 424.453C533.462 458.065 542.122 498.283 542.122 545.106C542.122 592.076 533.389 632.44 515.922 666.2C498.602 699.959 473.576 725.866 440.844 743.92C408.259 761.974 369.068 771.001 323.273 771.001ZM252.158 700.326H319.31C350.721 700.326 376.921 694.602 397.911 683.153C418.9 671.557 434.679 654.311 445.247 631.413C455.815 608.368 461.099 579.599 461.099 545.106C461.099 510.613 455.815 481.991 445.247 459.24C434.679 436.342 419.047 419.242 398.351 407.94C377.802 396.491 352.262 390.767 321.732 390.767H252.158V700.326Z" fill="#FDFCFA"/>
<path d="M348.818 583H324.173V510.273H349.315C356.536 510.273 362.739 511.729 367.923 514.641C373.132 517.529 377.133 521.684 379.926 527.105C382.72 532.527 384.116 539.013 384.116 546.565C384.116 554.141 382.708 560.652 379.891 566.097C377.097 571.542 373.061 575.72 367.781 578.632C362.526 581.544 356.205 583 348.818 583ZM337.348 571.601H348.179C353.245 571.601 357.471 570.678 360.857 568.831C364.242 566.961 366.787 564.179 368.491 560.486C370.196 556.769 371.048 552.129 371.048 546.565C371.048 541.002 370.196 536.385 368.491 532.716C366.787 529.023 364.266 526.265 360.928 524.442C357.613 522.595 353.494 521.672 348.57 521.672H337.348V571.601Z" fill="#FAFBF7"/>
<path d="M324.173 583H294.173V613H324.173V583ZM324.173 510.273V480.273H294.173V510.273H324.173ZM367.923 514.641L353.232 540.797L353.303 540.837L353.374 540.877L367.923 514.641ZM379.891 566.097L353.246 552.311L353.222 552.357L353.199 552.402L379.891 566.097ZM367.781 578.632L353.292 552.363L353.267 552.377L353.242 552.391L367.781 578.632ZM337.348 571.601H307.348V601.601H337.348V571.601ZM360.857 568.831L375.222 595.168L375.293 595.129L375.363 595.09L360.857 568.831ZM368.491 560.486L395.73 573.058L395.746 573.025L395.761 572.991L368.491 560.486ZM368.491 532.716L341.253 545.288L341.268 545.321L341.284 545.354L368.491 532.716ZM360.928 524.442L346.326 550.649L346.437 550.711L346.549 550.771L360.928 524.442ZM337.348 521.672V491.672H307.348V521.672H337.348ZM348.818 553H324.173V613H348.818V553ZM354.173 583V510.273H294.173V583H354.173ZM324.173 540.273H349.315V480.273H324.173V540.273ZM349.315 540.273C350.918 540.273 351.948 540.435 352.527 540.571C352.815 540.638 352.999 540.701 353.1 540.74C353.151 540.759 353.185 540.775 353.205 540.784C353.215 540.789 353.222 540.792 353.226 540.794C353.229 540.795 353.23 540.796 353.231 540.797C353.232 540.797 353.232 540.797 353.232 540.797L382.614 488.484C372.075 482.565 360.584 480.273 349.315 480.273V540.273ZM353.374 540.877C353.403 540.893 353.416 540.901 353.414 540.9C353.412 540.898 353.399 540.89 353.379 540.874C353.358 540.858 353.332 540.837 353.303 540.812C353.275 540.786 353.247 540.759 353.221 540.732C353.195 540.705 353.174 540.681 353.159 540.663C353.143 540.645 353.136 540.635 353.138 540.636C353.138 540.637 353.182 540.699 353.258 540.847L406.594 513.364C401.154 502.806 392.997 494.241 382.472 488.405L353.374 540.877ZM353.258 540.847C353.402 541.124 354.116 542.675 354.116 546.565H414.116C414.116 535.351 412.038 523.929 406.594 513.364L353.258 540.847ZM354.116 546.565C354.116 550.455 353.399 552.015 353.246 552.311L406.536 579.882C412.017 569.288 414.116 557.827 414.116 546.565H354.116ZM353.199 552.402C353.164 552.471 353.137 552.517 353.12 552.544C353.104 552.571 353.096 552.582 353.098 552.58C353.099 552.577 353.109 552.564 353.126 552.544C353.143 552.523 353.165 552.498 353.191 552.471C353.218 552.444 353.245 552.418 353.272 552.394C353.299 552.37 353.322 552.351 353.338 552.339C353.355 552.326 353.362 552.322 353.357 552.325C353.351 552.328 353.331 552.342 353.292 552.363L382.27 604.901C392.861 599.06 401.107 590.463 406.583 579.791L353.199 552.402ZM353.242 552.391C353.235 552.394 353.178 552.426 353.049 552.474C352.919 552.524 352.698 552.597 352.365 552.674C351.693 552.828 350.552 553 348.818 553V613C360.136 613 371.704 610.756 382.32 604.874L353.242 552.391ZM337.348 601.601H348.179V541.601H337.348V601.601ZM348.179 601.601C356.742 601.601 366.263 600.055 375.222 595.168L346.491 542.494C347.581 541.9 348.409 541.673 348.745 541.6C349.057 541.532 348.915 541.601 348.179 541.601V601.601ZM375.363 595.09C384.643 589.964 391.495 582.233 395.73 573.058L341.253 547.914C341.594 547.174 342.197 546.155 343.17 545.092C344.154 544.016 345.265 543.171 346.35 542.572L375.363 595.09ZM395.761 572.991C399.79 564.205 401.048 554.976 401.048 546.565H341.048C341.048 547.843 340.948 548.55 340.903 548.798C340.859 549.039 340.894 548.697 341.222 547.98L395.761 572.991ZM401.048 546.565C401.048 538.177 399.797 528.899 395.699 520.077L341.284 545.354C340.918 544.567 340.869 544.166 340.908 544.377C340.948 544.595 341.048 545.286 341.048 546.565H401.048ZM395.73 520.144C391.526 511.035 384.7 503.242 375.306 498.112L346.549 550.771C345.364 550.125 344.193 549.228 343.18 548.119C342.181 547.027 341.58 545.998 341.253 545.288L395.73 520.144ZM375.529 498.235C366.613 493.268 357.123 491.672 348.57 491.672V551.672C349.864 551.672 348.613 551.923 346.326 550.649L375.529 498.235ZM348.57 491.672H337.348V551.672H348.57V491.672ZM307.348 521.672V571.601H367.348V521.672H307.348Z" fill="#8666B1"/>
<path d="M522 710.499C519.5 703.499 471 769.499 461 776.499H528C526.833 756.833 524 716.099 522 710.499Z" fill="#FCFCFA" stroke="#FDFFFF"/>
<path d="M753 854V310.5H171L221 239H947V310.5H823V461.5H947V501H823V587H991V624H823V672.5H991V711H956.5C912 711.667 823 712.6 823 711V854H753Z" fill="black" stroke="black"/>
<path d="M711 890.5H636.5V371.5H538.5C528 343 495 314.5 472 306.5H920V371.5H711V890.5Z" fill="#FAFBF7" stroke="#FDFCFA"/>
<path d="M581 921H509V1024H581V921Z" fill="black"/>
<path d="M581 68H509V171H581V68Z" fill="black"/>
<path d="M950 744H859V876H950V744Z" fill="black"/>
</g>
<defs>
<linearGradient id="paint0_linear_575_23" x1="538" y1="1071" x2="538" y2="5" gradientUnits="userSpaceOnUse">
<stop stop-color="#5D3A8A"/>
<stop offset="1" stop-color="#AE95CC"/>
</linearGradient>
<clipPath id="clip0_575_23">
<rect width="1076" height="1076" fill="white"/>
</clipPath>
</defs>
</svg>
