<svg width="40" height="40" viewBox="0 0 40 40" fill="none" xmlns="http://www.w3.org/2000/svg">
<path d="M26.975 32.28L22.94 28.2425C21.3796 28.8004 19.6929 28.9037 18.076 28.5404C16.4592 28.1771 14.9788 27.3622 13.807 26.1905C12.6353 25.0187 11.8204 23.5383 11.4571 21.9214C11.0938 20.3046 11.1971 18.6179 11.755 17.0575L6.605 11.9075C2.345 15.695 0 20 0 20C0 20 7.5 33.75 20 33.75C22.401 33.7417 24.7748 33.2414 26.975 32.28ZM13.025 7.72C15.2251 6.75856 17.599 6.25827 20 6.25C32.5 6.25 40 20 40 20C40 20 37.6525 24.3025 33.3975 28.095L28.2425 22.94C28.8004 21.3796 28.9037 19.6929 28.5404 18.076C28.1771 16.4592 27.3622 14.9788 26.1905 13.807C25.0187 12.6353 23.5383 11.8204 21.9214 11.4571C20.3046 11.0938 18.6179 11.1971 17.0575 11.755L13.025 7.72Z" fill="white"/>
<path d="M13.8127 19.1152C13.6752 20.076 13.7633 21.0556 14.0701 21.9764C14.3769 22.8972 14.894 23.7339 15.5803 24.4202C16.2666 25.1065 17.1033 25.6235 18.0241 25.9303C18.9449 26.2371 19.9245 26.3253 20.8852 26.1877L13.8127 19.1152ZM26.1877 20.8852L19.1152 13.8102C20.076 13.6727 21.0556 13.7608 21.9764 14.0676C22.8972 14.3744 23.7339 14.8915 24.4202 15.5778C25.1065 16.2641 25.6235 17.1008 25.9303 18.0216C26.2371 18.9424 26.3253 19.922 26.1877 20.8827V20.8852ZM34.1152 35.8852L4.11523 5.88523L5.88523 4.11523L35.8852 34.1152L34.1152 35.8852Z" fill="white"/>
</svg>
