<svg width="179" height="181" viewBox="0 0 179 181" fill="none" xmlns="http://www.w3.org/2000/svg">
<path d="M91.4999 84L51.9999 86.5C48.7999 18.9 74.3333 0.666667 87.4999 0C95.8333 2.66667 113.9 15 119.5 43C125.1 71 103.167 82 91.4999 84Z" fill="#D9D9D9"/>
<path d="M132 46C130 32.4 117.167 11.3333 111 2.5C160.6 16.5 177 59.6667 179 79.5C166.6 84.7 150.833 77.3333 144.5 73C141.167 69.6667 134 59.6 132 46Z" fill="#D9D9D9"/>
<path d="M119.5 173.5C167.9 156.3 179.333 111.333 179 91C165.167 89.3333 137.2 94.5 136 128.5C134.5 138.833 129.1 162.3 119.5 173.5Z" fill="#D9D9D9"/>
<path d="M91.4999 96C61.6666 97.5 1.6 100.5 0 100.5C8 152.9 49 173 68.5 176.5C53.3 158.5 46.1667 128 44.5 115L55 111C58.1874 140.5 64.5 149.5 73 165.5C79.8 178.3 90.8333 180.833 95.5 180.5C105.667 177.311 125.8 163.246 125 132.5C124.2 101.754 102.333 95.356 91.4999 96Z" fill="#D9D9D9"/>
<path d="M42 88.5C40 49.7 52.5 17.6667 59 6.5C12.6 22.5 0.333333 69.5 0 91L42 88.5Z" fill="#D9D9D9"/>
</svg>
