<svg width="21" height="21" viewBox="0 0 21 21" fill="none" xmlns="http://www.w3.org/2000/svg">
<path d="M15.4141 13.5755C16.6852 11.8411 17.2544 9.69071 17.0081 7.55461C16.7617 5.4185 15.7179 3.45418 14.0854 2.05464C12.453 0.655095 10.3523 -0.0764598 8.20362 0.00633226C6.05495 0.0891243 4.01677 0.980157 2.49685 2.50117C0.976928 4.02218 0.0873537 6.06099 0.0060992 8.20972C-0.0751553 10.3585 0.657902 12.4586 2.05861 14.0901C3.45933 15.7215 5.42439 16.764 7.56067 17.0088C9.69695 17.2536 11.8469 16.6828 13.5804 15.4105H13.5791C13.6185 15.463 13.6605 15.5129 13.7077 15.5615L18.7614 20.6151C19.0075 20.8614 19.3414 20.9999 19.6896 21C20.0378 21.0001 20.3718 20.8619 20.6181 20.6158C20.8644 20.3697 21.0028 20.0358 21.003 19.6876C21.0031 19.3394 20.8649 19.0054 20.6187 18.7591L15.5651 13.7054C15.5182 13.6579 15.4677 13.6153 15.4141 13.5755ZM15.7528 8.5297C15.7528 9.47778 15.5661 10.4166 15.2033 11.2925C14.8404 12.1684 14.3087 12.9643 13.6383 13.6347C12.9679 14.305 12.172 14.8368 11.2961 15.1996C10.4202 15.5625 9.48139 15.7492 8.53331 15.7492C7.58523 15.7492 6.64644 15.5625 5.77053 15.1996C4.89462 14.8368 4.09875 14.305 3.42836 13.6347C2.75796 12.9643 2.22618 12.1684 1.86337 11.2925C1.50055 10.4166 1.31381 9.47778 1.31381 8.5297C1.31381 6.61497 2.07444 4.77866 3.42836 3.42474C4.78227 2.07083 6.61858 1.3102 8.53331 1.3102C10.448 1.3102 12.2843 2.07083 13.6383 3.42474C14.9922 4.77866 15.7528 6.61497 15.7528 8.5297Z" fill="white"/>
</svg>
