<svg width="732" height="925" viewBox="0 0 732 925" fill="none" xmlns="http://www.w3.org/2000/svg">
<g clip-path="url(#clip0_522_10)">
<path d="M722.044 816.286L730 708.835L517.169 454.275L387.88 468.199L358.044 12.701C344.12 -3.2116 246.656 -7.18974 252.623 28.6135C257.397 57.2562 290.415 341.561 306.328 480.133L2 515.936L7.96721 613.4L105.432 923.696L722.044 816.286Z" fill="#FF6900" stroke="#FF6900" stroke-width="2"/>
<path d="M296.382 40.5473C310.969 40.5473 341.733 37.3648 348.098 24.6348C348.098 26.6238 338.153 50.4927 296.382 40.5473Z" fill="#D9D9D9" stroke="white"/>
<path d="M445.563 539.809C456.702 614.598 337.49 608.1 276.492 595.503C308.317 631.306 407.771 635.284 445.563 601.47C475.797 574.419 458.16 549.091 445.563 539.809Z" fill="#D9D9D9"/>
<path d="M290.415 579.589C294.394 549.753 312.295 545.775 314.284 543.786V527.873C304.737 526.282 291.741 539.145 286.437 545.775C275.299 566.461 284.448 576.937 290.415 579.589Z" fill="#D9D9D9"/>
<path d="M421.694 547.761C418.512 539.805 401.803 532.512 393.847 529.859V543.786C400.477 543.122 415.329 542.987 421.694 547.761Z" fill="#D9D9D9"/>
<path d="M445.563 539.809C456.702 614.598 337.49 608.1 276.492 595.503C308.317 631.306 407.771 635.284 445.563 601.47C475.797 574.419 458.16 549.091 445.563 539.809Z" stroke="white"/>
<path d="M290.415 579.589C294.394 549.753 312.295 545.775 314.284 543.786V527.873C304.737 526.282 291.741 539.145 286.437 545.775C275.299 566.461 284.448 576.937 290.415 579.589Z" stroke="white"/>
<path d="M421.694 547.761C418.512 539.805 401.803 532.512 393.847 529.859V543.786C400.477 543.122 415.329 542.987 421.694 547.761Z" stroke="white"/>
<path d="M702.153 708.832L123.333 800.329L115.377 796.394C85.5411 714.841 24.6756 550.143 19.9018 543.778C15.128 537.413 13.9346 543.778 13.9346 547.757L107.421 800.369L105.447 814.423C107.074 828.595 115.389 825.553 119.355 822.248L127.312 814.292L700.164 726.773C718.066 722.852 712.099 706.844 702.153 708.832Z" fill="#D9D9D9"/>
<path d="M105.432 814.292C107.023 828.613 115.377 825.564 119.355 822.248L127.312 814.292L700.164 726.773C718.066 722.852 712.098 706.844 702.153 708.832L123.333 800.329L115.377 796.394C85.5411 714.841 24.6756 550.143 19.9018 543.778C15.128 537.413 13.9346 543.778 13.9346 547.757L107.421 800.369L105.432 814.529" stroke="white"/>
<path d="M535.071 549.75C546.21 699.328 316.936 682.355 200.907 655.171C238.699 698.93 405.781 762.581 521.147 694.952C613.44 640.849 568.885 575.608 535.071 549.75Z" fill="#D9D9D9" stroke="white"/>
</g>
<defs>
<clipPath id="clip0_522_10">
<rect width="732" height="925" fill="white"/>
</clipPath>
</defs>
</svg>
