<svg width="21" height="24" viewBox="0 0 21 24" fill="none" xmlns="http://www.w3.org/2000/svg">
<path fill-rule="evenodd" clip-rule="evenodd" d="M14.25 5.25C14.25 4.25544 13.8549 3.30161 13.1517 2.59835C12.4484 1.89509 11.4946 1.5 10.5 1.5C9.50544 1.5 8.55161 1.89509 7.84835 2.59835C7.14509 3.30161 6.75 4.25544 6.75 5.25V6H14.25V5.25ZM15.75 5.25V6H21V21C21 21.7957 20.6839 22.5587 20.1213 23.1213C19.5587 23.6839 18.7957 24 18 24H3C2.20435 24 1.44129 23.6839 0.87868 23.1213C0.316071 22.5587 0 21.7957 0 21V6H5.25V5.25C5.25 3.85761 5.80312 2.52226 6.78769 1.53769C7.77226 0.553123 9.10761 0 10.5 0C11.8924 0 13.2277 0.553123 14.2123 1.53769C15.1969 2.52226 15.75 3.85761 15.75 5.25ZM11.25 12C11.25 11.8011 11.171 11.6103 11.0303 11.4697C10.8897 11.329 10.6989 11.25 10.5 11.25C10.3011 11.25 10.1103 11.329 9.96967 11.4697C9.82902 11.6103 9.75 11.8011 9.75 12V14.25H7.5C7.30109 14.25 7.11032 14.329 6.96967 14.4697C6.82902 14.6103 6.75 14.8011 6.75 15C6.75 15.1989 6.82902 15.3897 6.96967 15.5303C7.11032 15.671 7.30109 15.75 7.5 15.75H9.75V18C9.75 18.1989 9.82902 18.3897 9.96967 18.5303C10.1103 18.671 10.3011 18.75 10.5 18.75C10.6989 18.75 10.8897 18.671 11.0303 18.5303C11.171 18.3897 11.25 18.1989 11.25 18V15.75H13.5C13.6989 15.75 13.8897 15.671 14.0303 15.5303C14.171 15.3897 14.25 15.1989 14.25 15C14.25 14.8011 14.171 14.6103 14.0303 14.4697C13.8897 14.329 13.6989 14.25 13.5 14.25H11.25V12Z" fill="#8D8B93"/>
</svg>
