<svg width="24" height="24" viewBox="0 0 24 24" fill="none" xmlns="http://www.w3.org/2000/svg">
<path d="M10.803 23.9499C8.90171 23.754 7.07486 23.1059 5.47508 22.0599C4.12809 21.1824 3.82359 20.821 3.82359 20.101C3.82359 18.6535 5.41658 16.117 8.14205 13.2265C9.68854 11.584 11.8455 9.65955 12.078 9.71205C12.531 9.81405 16.155 13.3465 17.511 15.0085C19.6559 17.638 20.6429 19.792 20.1419 20.752C19.7609 21.4809 17.397 22.9074 15.6615 23.4549C14.2305 23.9064 12.351 24.0984 10.803 23.9499ZM2.00411 18.595C0.883617 16.879 0.318122 15.19 0.0451249 12.745C-0.0448743 11.9365 -0.0118746 11.476 0.250623 9.82005C0.57762 7.75457 1.75361 5.36509 3.1681 3.89511C3.76959 3.26961 3.82359 3.25461 4.55708 3.50061C5.44958 3.80061 6.40207 4.4576 7.87655 5.79259L8.73755 6.57108L8.26805 7.14858C6.08407 9.82905 3.78009 13.6285 2.9101 15.979C2.4376 17.257 2.24711 18.5395 2.4511 19.0735C2.5876 19.4335 2.4616 19.2985 2.00111 18.595H2.00411ZM21.6554 18.8875C21.7664 18.3475 21.6269 17.3575 21.2984 16.357C20.5889 14.1925 18.216 10.165 16.0365 7.42757L15.351 6.56508L16.092 5.88409C17.061 4.9946 17.7345 4.4621 18.462 4.0091C19.0335 3.65361 19.8524 3.33711 20.2034 3.33711C20.4209 3.33711 21.1844 4.1291 21.8009 4.9931C22.7818 6.39098 23.4673 7.97423 23.8154 9.64605C24.0449 10.738 24.0644 13.075 23.8514 14.164C23.6515 15.1394 23.3498 16.0911 22.9514 17.0035C22.6829 17.593 22.0154 18.7375 21.7214 19.1095C21.5714 19.3015 21.5699 19.3 21.6554 18.8875ZM11.0025 2.92761C9.99754 2.41762 8.44655 1.87012 7.58856 1.72312C7.21182 1.66701 6.83074 1.64542 6.45007 1.65863C5.74357 1.69462 5.77507 1.65863 6.90906 1.12163C7.79801 0.694714 8.73749 0.382225 9.70504 0.191638C10.905 -0.0618593 13.164 -0.0633593 14.346 0.184139C15.621 0.454136 17.1255 1.01213 17.973 1.53413L18.225 1.68863L17.6475 1.65863C16.4985 1.60163 14.8275 2.06362 13.0305 2.93811C12.489 3.20211 12.0165 3.41211 11.982 3.40611C11.6504 3.25636 11.3247 3.09679 11.0025 2.92761Z" fill="white"/>
</svg>
