<svg width="3182" height="2409" viewBox="0 0 3182 2409" fill="none" xmlns="http://www.w3.org/2000/svg">
<line x1="1096.5" y1="1.00195" x2="1096.5" y2="2408.99" stroke="#373738" stroke-opacity="0.5"/>
<line x1="1169.5" y1="1.00195" x2="1169.5" y2="2408.99" stroke="#373738" stroke-opacity="0.5"/>
<line x1="1242.5" y1="1.00195" x2="1242.5" y2="2408.99" stroke="#373738" stroke-opacity="0.5"/>
<line x1="1315.5" y1="1.00195" x2="1315.5" y2="2408.99" stroke="#373738" stroke-opacity="0.5"/>
<line x1="1388.5" y1="1.00195" x2="1388.5" y2="2408.99" stroke="#373738" stroke-opacity="0.5"/>
<line x1="1461.5" y1="1.00195" x2="1461.5" y2="2408.99" stroke="#373738" stroke-opacity="0.5"/>
<line x1="1534.5" y1="1.00195" x2="1534.5" y2="2408.99" stroke="#373738" stroke-opacity="0.5"/>
<line x1="1607.5" y1="1.00195" x2="1607.5" y2="2408.99" stroke="#373738" stroke-opacity="0.5"/>
<line x1="1680.5" y1="1.00195" x2="1680.5" y2="2408.99" stroke="#373738" stroke-opacity="0.5"/>
<line x1="1753.5" y1="1.00195" x2="1753.5" y2="2408.99" stroke="#373738" stroke-opacity="0.5"/>
<line x1="1826.5" y1="1.00195" x2="1826.5" y2="2408.99" stroke="#373738" stroke-opacity="0.5"/>
<line x1="1899.5" y1="1.00195" x2="1899.5" y2="2408.99" stroke="#373738" stroke-opacity="0.5"/>
<line x1="1972.5" y1="1.00195" x2="1972.5" y2="2408.99" stroke="#373738" stroke-opacity="0.5"/>
<line x1="2045.5" y1="1.00195" x2="2045.5" y2="2408.99" stroke="#373738" stroke-opacity="0.5"/>
<line x1="2118.5" y1="1.00195" x2="2118.5" y2="2408.99" stroke="#373738" stroke-opacity="0.5"/>
<line x1="2191.5" y1="1.00195" x2="2191.5" y2="2408.99" stroke="#373738" stroke-opacity="0.5"/>
<line x1="2264.5" y1="1.00195" x2="2264.5" y2="2408.99" stroke="#373738" stroke-opacity="0.5"/>
<line x1="2337.5" y1="1.00195" x2="2337.5" y2="2408.99" stroke="#373738" stroke-opacity="0.5"/>
<line x1="2410.5" y1="1.00195" x2="2410.5" y2="2408.99" stroke="#373738" stroke-opacity="0.5"/>
<line x1="2483.5" y1="1.00195" x2="2483.5" y2="2408.99" stroke="#373738" stroke-opacity="0.5"/>
<line x1="2556.5" y1="1.00195" x2="2556.5" y2="2408.99" stroke="#373738" stroke-opacity="0.5"/>
<line x1="2629.5" y1="1.00195" x2="2629.5" y2="2408.99" stroke="#373738" stroke-opacity="0.5"/>
<line x1="2702.5" y1="1.00195" x2="2702.5" y2="2408.99" stroke="#373738" stroke-opacity="0.5"/>
<line x1="2775.5" y1="1.00195" x2="2775.5" y2="2408.99" stroke="#373738" stroke-opacity="0.5"/>
<line x1="2848.5" y1="1.00195" x2="2848.5" y2="2408.99" stroke="#373738" stroke-opacity="0.5"/>
<line x1="2921.5" y1="1.00195" x2="2921.5" y2="2408.99" stroke="#373738" stroke-opacity="0.5"/>
<line x1="2994.5" y1="1.00195" x2="2994.5" y2="2408.99" stroke="#373738" stroke-opacity="0.5"/>
<line x1="3067.5" y1="1.00195" x2="3067.5" y2="2408.99" stroke="#373738" stroke-opacity="0.5"/>
<line x1="3140.5" y1="1.00195" x2="3140.5" y2="2408.99" stroke="#373738" stroke-opacity="0.5"/>
<line x1="1.5" y1="1.00195" x2="1.49995" y2="2408.99" stroke="#373738" stroke-opacity="0.5"/>
<line x1="74.5" y1="1.00195" x2="74.4999" y2="2408.99" stroke="#373738" stroke-opacity="0.5"/>
<line x1="147.5" y1="1.00195" x2="147.5" y2="2408.99" stroke="#373738" stroke-opacity="0.5"/>
<line x1="220.5" y1="1.00195" x2="220.5" y2="2408.99" stroke="#373738" stroke-opacity="0.5"/>
<line x1="293.5" y1="1.00195" x2="293.5" y2="2408.99" stroke="#373738" stroke-opacity="0.5"/>
<line x1="366.5" y1="1.00195" x2="366.5" y2="2408.99" stroke="#373738" stroke-opacity="0.5"/>
<line x1="439.5" y1="1.00195" x2="439.5" y2="2408.99" stroke="#373738" stroke-opacity="0.5"/>
<line x1="512.5" y1="1.00195" x2="512.5" y2="2408.99" stroke="#373738" stroke-opacity="0.5"/>
<line x1="585.5" y1="1.00195" x2="585.5" y2="2408.99" stroke="#373738" stroke-opacity="0.5"/>
<line x1="658.5" y1="1.00195" x2="658.5" y2="2408.99" stroke="#373738" stroke-opacity="0.5"/>
<line x1="731.5" y1="1.00195" x2="731.5" y2="2408.99" stroke="#373738" stroke-opacity="0.5"/>
<line x1="804.501" y1="1.00195" x2="804.501" y2="2408.99" stroke="#373738" stroke-opacity="0.5"/>
<line x1="877.501" y1="1.00195" x2="877.501" y2="2408.99" stroke="#373738" stroke-opacity="0.5"/>
<line x1="950.501" y1="1.00195" x2="950.501" y2="2408.99" stroke="#373738" stroke-opacity="0.5"/>
<line x1="1023.5" y1="1.00195" x2="1023.5" y2="2408.99" stroke="#373738" stroke-opacity="0.5"/>
<line x1="3.81287e-08" y1="2408.5" x2="3182" y2="2408.5" stroke="#373738" stroke-opacity="0.5"/>
<line x1="3.81287e-08" y1="1313.5" x2="3182" y2="1313.5" stroke="#373738" stroke-opacity="0.5"/>
<line x1="3.81287e-08" y1="2335.5" x2="3182" y2="2335.5" stroke="#373738" stroke-opacity="0.5"/>
<line x1="3.81287e-08" y1="1240.5" x2="3182" y2="1240.5" stroke="#373738" stroke-opacity="0.5"/>
<line x1="3.81287e-08" y1="2262.5" x2="3182" y2="2262.5" stroke="#373738" stroke-opacity="0.5"/>
<line x1="3.81287e-08" y1="1167.5" x2="3182" y2="1167.5" stroke="#373738" stroke-opacity="0.5"/>
<line x1="3.81287e-08" y1="2189.5" x2="3182" y2="2189.5" stroke="#373738" stroke-opacity="0.5"/>
<line x1="3.81287e-08" y1="1094.5" x2="3182" y2="1094.5" stroke="#373738" stroke-opacity="0.5"/>
<line x1="3.81287e-08" y1="2116.5" x2="3182" y2="2116.5" stroke="#373738" stroke-opacity="0.5"/>
<line x1="3.81287e-08" y1="1021.5" x2="3182" y2="1021.5" stroke="#373738" stroke-opacity="0.5"/>
<line x1="3.81287e-08" y1="2043.5" x2="3182" y2="2043.5" stroke="#373738" stroke-opacity="0.5"/>
<line x1="3.81287e-08" y1="948.502" x2="3182" y2="948.502" stroke="#373738" stroke-opacity="0.5"/>
<line x1="3.81287e-08" y1="1970.5" x2="3182" y2="1970.5" stroke="#373738" stroke-opacity="0.5"/>
<line x1="3.81287e-08" y1="875.502" x2="3182" y2="875.502" stroke="#373738" stroke-opacity="0.5"/>
<line x1="3.76853e-08" y1="1897.5" x2="3182" y2="1897.5" stroke="#373738" stroke-opacity="0.5"/>
<line x1="3.76853e-08" y1="802.502" x2="3182" y2="802.502" stroke="#373738" stroke-opacity="0.5"/>
<line x1="3.76853e-08" y1="1824.5" x2="3182" y2="1824.5" stroke="#373738" stroke-opacity="0.5"/>
<line x1="3.76853e-08" y1="729.502" x2="3182" y2="729.502" stroke="#373738" stroke-opacity="0.5"/>
<line x1="3.76853e-08" y1="1751.5" x2="3182" y2="1751.5" stroke="#373738" stroke-opacity="0.5"/>
<line x1="3.76853e-08" y1="656.502" x2="3182" y2="656.502" stroke="#373738" stroke-opacity="0.5"/>
<line x1="3.76853e-08" y1="218.502" x2="3182" y2="218.502" stroke="#373738" stroke-opacity="0.5"/>
<line x1="3.76853e-08" y1="1678.5" x2="3182" y2="1678.5" stroke="#373738" stroke-opacity="0.5"/>
<line x1="3.76853e-08" y1="583.502" x2="3182" y2="583.502" stroke="#373738" stroke-opacity="0.5"/>
<line x1="3.76853e-08" y1="145.502" x2="3182" y2="145.502" stroke="#373738" stroke-opacity="0.5"/>
<line x1="3.76853e-08" y1="1605.5" x2="3182" y2="1605.5" stroke="#373738" stroke-opacity="0.5"/>
<line x1="3.76853e-08" y1="510.5" x2="3182" y2="510.5" stroke="#373738" stroke-opacity="0.5"/>
<line x1="3.76853e-08" y1="72.5" x2="3182" y2="72.4999" stroke="#373738" stroke-opacity="0.5"/>
<line x1="3.76853e-08" y1="1532.5" x2="3182" y2="1532.5" stroke="#373738" stroke-opacity="0.5"/>
<line x1="3.76853e-08" y1="437.5" x2="3182" y2="437.5" stroke="#373738" stroke-opacity="0.5"/>
<line x1="3.76853e-08" y1="1459.5" x2="3182" y2="1459.5" stroke="#373738" stroke-opacity="0.5"/>
<line x1="3.76853e-08" y1="364.502" x2="3182" y2="364.502" stroke="#373738" stroke-opacity="0.5"/>
<line x1="3.76853e-08" y1="1386.5" x2="3182" y2="1386.5" stroke="#373738" stroke-opacity="0.5"/>
<line x1="3.76853e-08" y1="291.502" x2="3182" y2="291.502" stroke="#373738" stroke-opacity="0.5"/>
</svg>
