<svg width="28" height="28" viewBox="0 0 28 28" fill="none" xmlns="http://www.w3.org/2000/svg">
<path d="M13.0411 22.8312C13.1481 22.9866 13.2914 23.1137 13.4584 23.2015C13.6255 23.2893 13.8114 23.3352 14.0001 23.3352C14.1888 23.3352 14.3747 23.2893 14.5418 23.2015C14.7089 23.1137 14.8521 22.9866 14.9591 22.8312L25.4591 7.66449C25.5806 7.48955 25.6519 7.28466 25.6652 7.07206C25.6784 6.85946 25.6332 6.64729 25.5343 6.45861C25.4355 6.26993 25.2868 6.11194 25.1045 6.00182C24.9221 5.8917 24.7131 5.83365 24.5001 5.83399H3.50011C3.28759 5.83486 3.07934 5.89366 2.89774 6.00404C2.71614 6.11443 2.56806 6.27223 2.46944 6.46048C2.37082 6.64873 2.32538 6.8603 2.338 7.07244C2.35063 7.28458 2.42085 7.48927 2.54111 7.66449L13.0411 22.8312Z" fill="#D9D9D9"/>
</svg>
