<svg width="40" height="56" viewBox="0 0 40 56" fill="none" xmlns="http://www.w3.org/2000/svg">
<circle cx="15.5" cy="51.5" r="4.5" fill="white"/>
<path fill-rule="evenodd" clip-rule="evenodd" d="M39.6329 7.86526C39.7493 7.98137 39.8417 8.1193 39.9047 8.27115C39.9677 8.42301 40.0001 8.5858 40.0001 8.75021C40.0001 8.91462 39.9677 9.07741 39.9047 9.22927C39.8417 9.38112 39.7493 9.51905 39.6329 9.63516L32.1333 17.1347C32.0172 17.2511 31.8793 17.3435 31.7274 17.4065C31.5756 17.4695 31.4128 17.502 31.2484 17.502C31.084 17.502 30.9212 17.4695 30.7693 17.4065C30.6175 17.3435 30.4795 17.2511 30.3634 17.1347L26.6136 13.385C26.3789 13.1503 26.2471 12.8319 26.2471 12.5C26.2471 12.1681 26.3789 11.8498 26.6136 11.6151C26.8483 11.3803 27.1667 11.2485 27.4986 11.2485C27.8305 11.2485 28.1488 11.3803 28.3835 11.6151L31.2484 14.4824L37.863 7.86526C37.9791 7.74886 38.117 7.65651 38.2689 7.59349C38.4208 7.53048 38.5835 7.49805 38.748 7.49805C38.9124 7.49805 39.0752 7.53048 39.227 7.59349C39.3789 7.65651 39.5168 7.74886 39.6329 7.86526Z" fill="white"/>
<path d="M2.49986 29.9983C2.49986 29.9983 0 29.9983 0 27.4985C0 24.9986 2.49986 17.499 14.9992 17.499C27.4985 17.499 29.9983 24.9986 29.9983 27.4985C29.9983 29.9983 27.4985 29.9983 27.4985 29.9983H2.49986ZM14.9992 14.9992C16.9882 14.9992 18.8957 14.209 20.3022 12.8026C21.7086 11.3961 22.4988 9.4886 22.4988 7.49958C22.4988 5.51057 21.7086 3.60302 20.3022 2.19658C18.8957 0.790133 16.9882 0 14.9992 0C13.0102 0 11.1026 0.790133 9.69616 2.19658C8.28972 3.60302 7.49958 5.51057 7.49958 7.49958C7.49958 9.4886 8.28972 11.3961 9.69616 12.8026C11.1026 14.209 13.0102 14.9992 14.9992 14.9992Z" fill="white"/>
</svg>
